<?xml version="1.0" encoding="UTF-8" standalone="no"?>
<!DOCTYPE svg PUBLIC "-//W3C//DTD SVG 1.1//EN"
 "http://www.w3.org/Graphics/SVG/1.1/DTD/svg11.dtd">
<!-- Generated by graphviz version 5.0.0 (0)
 -->
<!-- Title: G Pages: 1 -->
<svg width="770pt" height="729pt"
 viewBox="0.00 0.00 770.00 729.00" xmlns="http://www.w3.org/2000/svg" xmlns:xlink="http://www.w3.org/1999/xlink">
<g id="graph0" class="graph" transform="scale(1 1) rotate(0) translate(4 725)">
<title>G</title>
<polygon fill="white" stroke="transparent" points="-4,4 -4,-725 766,-725 766,4 -4,4"/>
<!-- START -->
<g id="node1" class="node">
<title>START</title>
<polygon fill="none" stroke="black" points="388.5,-721 329.5,-721 329.5,-685 388.5,-685 388.5,-721"/>
<text text-anchor="middle" x="359" y="-699.3" font-family="Times,serif" font-size="14.00">START</text>
</g>
<!-- Order:
 
 Rules:
f(g(x),g(y)) &#45;&gt; f(x,y) -->
<g id="node2" class="node">
<title>Order:
 
 Rules:
f(g(x),g(y)) &#45;&gt; f(x,y)</title>
<polygon fill="none" stroke="black" points="424,-634 294,-634 294,-566 424,-566 424,-634"/>
<text text-anchor="middle" x="359" y="-618.8" font-family="Times,serif" font-size="14.00">Order:</text>
<text text-anchor="middle" x="359" y="-603.8" font-family="Times,serif" font-size="14.00"> </text>
<text text-anchor="middle" x="359" y="-588.8" font-family="Times,serif" font-size="14.00"> Rules:</text>
<text text-anchor="middle" x="359" y="-573.8" font-family="Times,serif" font-size="14.00">f(g(x),g(y)) &#45;&gt; f(x,y)</text>
</g>
<!-- START&#45;&gt;Order:
 
 Rules:
f(g(x),g(y)) &#45;&gt; f(x,y) -->
<g id="edge1" class="edge">
<title>START&#45;&gt;Order:
 
 Rules:
f(g(x),g(y)) &#45;&gt; f(x,y)</title>
<path fill="none" stroke="black" d="M359,-684.87C359,-673.73 359,-658.66 359,-644.38"/>
<polygon fill="black" stroke="black" points="362.5,-644.18 359,-634.18 355.5,-644.18 362.5,-644.18"/>
<text text-anchor="middle" x="366" y="-655.8" font-family="Times,serif" font-size="14.00">go</text>
</g>
<!-- Order:
 
 Rules:
g(x) &#45;&gt; f(x,y) -->
<g id="node3" class="node">
<title>Order:
 
 Rules:
g(x) &#45;&gt; f(x,y)</title>
<polygon fill="none" stroke="black" points="227,-455 137,-455 137,-387 227,-387 227,-455"/>
<text text-anchor="middle" x="182" y="-439.8" font-family="Times,serif" font-size="14.00">Order:</text>
<text text-anchor="middle" x="182" y="-424.8" font-family="Times,serif" font-size="14.00"> </text>
<text text-anchor="middle" x="182" y="-409.8" font-family="Times,serif" font-size="14.00"> Rules:</text>
<text text-anchor="middle" x="182" y="-394.8" font-family="Times,serif" font-size="14.00">g(x) &#45;&gt; f(x,y)</text>
</g>
<!-- Order:
 
 Rules:
f(g(x),g(y)) &#45;&gt; f(x,y)&#45;&gt;Order:
 
 Rules:
g(x) &#45;&gt; f(x,y) -->
<g id="edge2" class="edge">
<title>Order:
 
 Rules:
f(g(x),g(y)) &#45;&gt; f(x,y)&#45;&gt;Order:
 
 Rules:
g(x) &#45;&gt; f(x,y)</title>
<path fill="none" stroke="black" d="M293.96,-593.89C261.32,-587.85 223.95,-575.02 201,-548 181.85,-525.45 177.52,-492.07 177.76,-465.33"/>
<polygon fill="black" stroke="black" points="181.26,-465.18 178.07,-455.08 174.27,-464.96 181.26,-465.18"/>
<text text-anchor="middle" x="278" y="-514.3" font-family="Times,serif" font-size="14.00">KB2 suppose &#160;g(x) &#45;&gt; f(x,y)</text>
</g>
<!-- Order:
 
 Rules:
g(y) &#45;&gt; f(x,y) -->
<g id="node7" class="node">
<title>Order:
 
 Rules:
g(y) &#45;&gt; f(x,y)</title>
<polygon fill="none" stroke="black" points="404,-455 314,-455 314,-387 404,-387 404,-455"/>
<text text-anchor="middle" x="359" y="-439.8" font-family="Times,serif" font-size="14.00">Order:</text>
<text text-anchor="middle" x="359" y="-424.8" font-family="Times,serif" font-size="14.00"> </text>
<text text-anchor="middle" x="359" y="-409.8" font-family="Times,serif" font-size="14.00"> Rules:</text>
<text text-anchor="middle" x="359" y="-394.8" font-family="Times,serif" font-size="14.00">g(y) &#45;&gt; f(x,y)</text>
</g>
<!-- Order:
 
 Rules:
f(g(x),g(y)) &#45;&gt; f(x,y)&#45;&gt;Order:
 
 Rules:
g(y) &#45;&gt; f(x,y) -->
<g id="edge6" class="edge">
<title>Order:
 
 Rules:
f(g(x),g(y)) &#45;&gt; f(x,y)&#45;&gt;Order:
 
 Rules:
g(y) &#45;&gt; f(x,y)</title>
<path fill="none" stroke="black" d="M359,-565.71C359,-537.28 359,-496.19 359,-465.22"/>
<polygon fill="black" stroke="black" points="362.5,-465.14 359,-455.14 355.5,-465.14 362.5,-465.14"/>
<text text-anchor="middle" x="475" y="-514.3" font-family="Times,serif" font-size="14.00">KB2 suppose &#160;g(x) &#45;&gt; f(x,y) g(y) &#45;&gt; f(x,y)</text>
</g>
<!-- Order:
 
 Rules:
f(g(x),g(y)) &#45;&gt; x
f(g(x),g(y)) &#45;&gt; y
g(y) &#45;&gt; y -->
<g id="node10" class="node">
<title>Order:
 
 Rules:
f(g(x),g(y)) &#45;&gt; x
f(g(x),g(y)) &#45;&gt; y
g(y) &#45;&gt; y</title>
<polygon fill="none" stroke="black" points="667,-470 561,-470 561,-372 667,-372 667,-470"/>
<text text-anchor="middle" x="614" y="-454.8" font-family="Times,serif" font-size="14.00">Order:</text>
<text text-anchor="middle" x="614" y="-439.8" font-family="Times,serif" font-size="14.00"> </text>
<text text-anchor="middle" x="614" y="-424.8" font-family="Times,serif" font-size="14.00"> Rules:</text>
<text text-anchor="middle" x="614" y="-409.8" font-family="Times,serif" font-size="14.00">f(g(x),g(y)) &#45;&gt; x</text>
<text text-anchor="middle" x="614" y="-394.8" font-family="Times,serif" font-size="14.00">f(g(x),g(y)) &#45;&gt; y</text>
<text text-anchor="middle" x="614" y="-379.8" font-family="Times,serif" font-size="14.00">g(y) &#45;&gt; y</text>
</g>
<!-- Order:
 
 Rules:
f(g(x),g(y)) &#45;&gt; f(x,y)&#45;&gt;Order:
 
 Rules:
f(g(x),g(y)) &#45;&gt; x
f(g(x),g(y)) &#45;&gt; y
g(y) &#45;&gt; y -->
<g id="edge9" class="edge">
<title>Order:
 
 Rules:
f(g(x),g(y)) &#45;&gt; f(x,y)&#45;&gt;Order:
 
 Rules:
f(g(x),g(y)) &#45;&gt; x
f(g(x),g(y)) &#45;&gt; y
g(y) &#45;&gt; y</title>
<path fill="none" stroke="black" d="M424.2,-592.82C484.86,-585.69 569.22,-571.77 592,-548 609.07,-530.18 615.47,-504.09 617.24,-480.27"/>
<polygon fill="black" stroke="black" points="620.74,-480.39 617.73,-470.23 613.75,-480.04 620.74,-480.39"/>
<text text-anchor="middle" x="663" y="-536.8" font-family="Times,serif" font-size="14.00">{&#39;KB4 new:</text>
<text text-anchor="middle" x="663" y="-521.8" font-family="Times,serif" font-size="14.00">(f(g(x),g(y)) &#45;&gt; x</text>
<text text-anchor="middle" x="663" y="-506.8" font-family="Times,serif" font-size="14.00">f(g(x),g(y)) &#45;&gt; y</text>
<text text-anchor="middle" x="663" y="-491.8" font-family="Times,serif" font-size="14.00">g(y) &#45;&gt; y)&#39;}</text>
</g>
<!-- Order:
 
 Rules:
x &#45;&gt; f(x,y) -->
<g id="node4" class="node">
<title>Order:
 
 Rules:
x &#45;&gt; f(x,y)</title>
<polygon fill="none" stroke="black" points="74,-298.5 0,-298.5 0,-230.5 74,-230.5 74,-298.5"/>
<text text-anchor="middle" x="37" y="-283.3" font-family="Times,serif" font-size="14.00">Order:</text>
<text text-anchor="middle" x="37" y="-268.3" font-family="Times,serif" font-size="14.00"> </text>
<text text-anchor="middle" x="37" y="-253.3" font-family="Times,serif" font-size="14.00"> Rules:</text>
<text text-anchor="middle" x="37" y="-238.3" font-family="Times,serif" font-size="14.00">x &#45;&gt; f(x,y)</text>
</g>
<!-- Order:
 
 Rules:
g(x) &#45;&gt; f(x,y)&#45;&gt;Order:
 
 Rules:
x &#45;&gt; f(x,y) -->
<g id="edge3" class="edge">
<title>Order:
 
 Rules:
g(x) &#45;&gt; f(x,y)&#45;&gt;Order:
 
 Rules:
x &#45;&gt; f(x,y)</title>
<path fill="none" stroke="black" d="M136.93,-410.01C106.45,-400.79 68.05,-383.85 47,-354 37.95,-341.17 34.51,-324.59 33.64,-309.25"/>
<polygon fill="black" stroke="black" points="37.14,-308.82 33.42,-298.9 30.14,-308.97 37.14,-308.82"/>
<text text-anchor="middle" x="116.5" y="-335.3" font-family="Times,serif" font-size="14.00">KB2 suppose &#160;x &#45;&gt; f(x,y)</text>
</g>
<!-- Order:
g &gt; f 
 Rules:
g(x) &#45;&gt; x
g(x) &#45;&gt; y -->
<g id="node5" class="node">
<title>Order:
g &gt; f 
 Rules:
g(x) &#45;&gt; x
g(x) &#45;&gt; y</title>
<polygon fill="none" stroke="black" points="232,-306 166,-306 166,-223 232,-223 232,-306"/>
<text text-anchor="middle" x="199" y="-290.8" font-family="Times,serif" font-size="14.00">Order:</text>
<text text-anchor="middle" x="199" y="-275.8" font-family="Times,serif" font-size="14.00">g &gt; f </text>
<text text-anchor="middle" x="199" y="-260.8" font-family="Times,serif" font-size="14.00"> Rules:</text>
<text text-anchor="middle" x="199" y="-245.8" font-family="Times,serif" font-size="14.00">g(x) &#45;&gt; x</text>
<text text-anchor="middle" x="199" y="-230.8" font-family="Times,serif" font-size="14.00">g(x) &#45;&gt; y</text>
</g>
<!-- Order:
 
 Rules:
g(x) &#45;&gt; f(x,y)&#45;&gt;Order:
g &gt; f 
 Rules:
g(x) &#45;&gt; x
g(x) &#45;&gt; y -->
<g id="edge4" class="edge">
<title>Order:
 
 Rules:
g(x) &#45;&gt; f(x,y)&#45;&gt;Order:
g &gt; f 
 Rules:
g(x) &#45;&gt; x
g(x) &#45;&gt; y</title>
<path fill="none" stroke="black" d="M185.65,-386.86C187.92,-366.23 190.88,-339.3 193.44,-316.05"/>
<polygon fill="black" stroke="black" points="196.93,-316.33 194.54,-306.01 189.97,-315.56 196.93,-316.33"/>
<text text-anchor="middle" x="231.5" y="-342.8" font-family="Times,serif" font-size="14.00">KB3 suppose </text>
<text text-anchor="middle" x="231.5" y="-327.8" font-family="Times,serif" font-size="14.00">g &gt; f</text>
</g>
<!-- Order:
g &gt; f 
 Rules:
g(x) &#45;&gt; y -->
<g id="node6" class="node">
<title>Order:
g &gt; f 
 Rules:
g(x) &#45;&gt; y</title>
<polygon fill="none" stroke="black" points="232,-172 166,-172 166,-104 232,-104 232,-172"/>
<text text-anchor="middle" x="199" y="-156.8" font-family="Times,serif" font-size="14.00">Order:</text>
<text text-anchor="middle" x="199" y="-141.8" font-family="Times,serif" font-size="14.00">g &gt; f </text>
<text text-anchor="middle" x="199" y="-126.8" font-family="Times,serif" font-size="14.00"> Rules:</text>
<text text-anchor="middle" x="199" y="-111.8" font-family="Times,serif" font-size="14.00">g(x) &#45;&gt; y</text>
</g>
<!-- Order:
g &gt; f 
 Rules:
g(x) &#45;&gt; x
g(x) &#45;&gt; y&#45;&gt;Order:
g &gt; f 
 Rules:
g(x) &#45;&gt; y -->
<g id="edge5" class="edge">
<title>Order:
g &gt; f 
 Rules:
g(x) &#45;&gt; x
g(x) &#45;&gt; y&#45;&gt;Order:
g &gt; f 
 Rules:
g(x) &#45;&gt; y</title>
<path fill="none" stroke="black" d="M199,-222.73C199,-209.86 199,-195.6 199,-182.54"/>
<polygon fill="black" stroke="black" points="202.5,-182.38 199,-172.38 195.5,-182.38 202.5,-182.38"/>
<text text-anchor="middle" x="253" y="-193.8" font-family="Times,serif" font-size="14.00">KB1 drop g(x) &#45;&gt; x</text>
</g>
<!-- Order:
 
 Rules:
y &#45;&gt; f(x,y) -->
<g id="node8" class="node">
<title>Order:
 
 Rules:
y &#45;&gt; f(x,y)</title>
<polygon fill="none" stroke="black" points="352,-298.5 278,-298.5 278,-230.5 352,-230.5 352,-298.5"/>
<text text-anchor="middle" x="315" y="-283.3" font-family="Times,serif" font-size="14.00">Order:</text>
<text text-anchor="middle" x="315" y="-268.3" font-family="Times,serif" font-size="14.00"> </text>
<text text-anchor="middle" x="315" y="-253.3" font-family="Times,serif" font-size="14.00"> Rules:</text>
<text text-anchor="middle" x="315" y="-238.3" font-family="Times,serif" font-size="14.00">y &#45;&gt; f(x,y)</text>
</g>
<!-- Order:
 
 Rules:
g(y) &#45;&gt; f(x,y)&#45;&gt;Order:
 
 Rules:
y &#45;&gt; f(x,y) -->
<g id="edge7" class="edge">
<title>Order:
 
 Rules:
g(y) &#45;&gt; f(x,y)&#45;&gt;Order:
 
 Rules:
y &#45;&gt; f(x,y)</title>
<path fill="none" stroke="black" d="M332.26,-386.91C325.66,-376.91 319.49,-365.52 316,-354 311.66,-339.68 310.48,-323.45 310.68,-308.84"/>
<polygon fill="black" stroke="black" points="314.18,-308.65 311.04,-298.53 307.19,-308.4 314.18,-308.65"/>
<text text-anchor="middle" x="385.5" y="-335.3" font-family="Times,serif" font-size="14.00">KB2 suppose &#160;y &#45;&gt; f(x,y)</text>
</g>
<!-- Order:
g &gt; f 
 Rules:
g(y) &#45;&gt; x
g(y) &#45;&gt; y -->
<g id="node9" class="node">
<title>Order:
g &gt; f 
 Rules:
g(y) &#45;&gt; x
g(y) &#45;&gt; y</title>
<polygon fill="none" stroke="black" points="510,-306 444,-306 444,-223 510,-223 510,-306"/>
<text text-anchor="middle" x="477" y="-290.8" font-family="Times,serif" font-size="14.00">Order:</text>
<text text-anchor="middle" x="477" y="-275.8" font-family="Times,serif" font-size="14.00">g &gt; f </text>
<text text-anchor="middle" x="477" y="-260.8" font-family="Times,serif" font-size="14.00"> Rules:</text>
<text text-anchor="middle" x="477" y="-245.8" font-family="Times,serif" font-size="14.00">g(y) &#45;&gt; x</text>
<text text-anchor="middle" x="477" y="-230.8" font-family="Times,serif" font-size="14.00">g(y) &#45;&gt; y</text>
</g>
<!-- Order:
 
 Rules:
g(y) &#45;&gt; f(x,y)&#45;&gt;Order:
g &gt; f 
 Rules:
g(y) &#45;&gt; x
g(y) &#45;&gt; y -->
<g id="edge8" class="edge">
<title>Order:
 
 Rules:
g(y) &#45;&gt; f(x,y)&#45;&gt;Order:
g &gt; f 
 Rules:
g(y) &#45;&gt; x
g(y) &#45;&gt; y</title>
<path fill="none" stroke="black" d="M404.2,-398.22C422.46,-387.31 442.21,-372.45 455,-354 462.69,-342.9 467.7,-329.38 470.96,-316.28"/>
<polygon fill="black" stroke="black" points="474.4,-316.91 473.12,-306.39 467.56,-315.41 474.4,-316.91"/>
<text text-anchor="middle" x="507.5" y="-342.8" font-family="Times,serif" font-size="14.00">KB3 suppose </text>
<text text-anchor="middle" x="507.5" y="-327.8" font-family="Times,serif" font-size="14.00">g &gt; f</text>
</g>
<!-- Order:
 
 Rules:
f(g(x),g(y)) &#45;&gt; y
g(y) &#45;&gt; y -->
<g id="node11" class="node">
<title>Order:
 
 Rules:
f(g(x),g(y)) &#45;&gt; y
g(y) &#45;&gt; y</title>
<polygon fill="none" stroke="black" points="667,-306 561,-306 561,-223 667,-223 667,-306"/>
<text text-anchor="middle" x="614" y="-290.8" font-family="Times,serif" font-size="14.00">Order:</text>
<text text-anchor="middle" x="614" y="-275.8" font-family="Times,serif" font-size="14.00"> </text>
<text text-anchor="middle" x="614" y="-260.8" font-family="Times,serif" font-size="14.00"> Rules:</text>
<text text-anchor="middle" x="614" y="-245.8" font-family="Times,serif" font-size="14.00">f(g(x),g(y)) &#45;&gt; y</text>
<text text-anchor="middle" x="614" y="-230.8" font-family="Times,serif" font-size="14.00">g(y) &#45;&gt; y</text>
</g>
<!-- Order:
 
 Rules:
f(g(x),g(y)) &#45;&gt; x
f(g(x),g(y)) &#45;&gt; y
g(y) &#45;&gt; y&#45;&gt;Order:
 
 Rules:
f(g(x),g(y)) &#45;&gt; y
g(y) &#45;&gt; y -->
<g id="edge10" class="edge">
<title>Order:
 
 Rules:
f(g(x),g(y)) &#45;&gt; x
f(g(x),g(y)) &#45;&gt; y
g(y) &#45;&gt; y&#45;&gt;Order:
 
 Rules:
f(g(x),g(y)) &#45;&gt; y
g(y) &#45;&gt; y</title>
<path fill="none" stroke="black" d="M614,-371.96C614,-354.34 614,-334.34 614,-316.46"/>
<polygon fill="black" stroke="black" points="617.5,-316.22 614,-306.22 610.5,-316.22 617.5,-316.22"/>
<text text-anchor="middle" x="688" y="-335.3" font-family="Times,serif" font-size="14.00">KB1 drop f(g(x),g(y)) &#45;&gt; x</text>
</g>
<!-- Order:
 
 Rules:
g(y) &#45;&gt; y -->
<g id="node12" class="node">
<title>Order:
 
 Rules:
g(y) &#45;&gt; y</title>
<polygon fill="none" stroke="black" points="647,-172 581,-172 581,-104 647,-104 647,-172"/>
<text text-anchor="middle" x="614" y="-156.8" font-family="Times,serif" font-size="14.00">Order:</text>
<text text-anchor="middle" x="614" y="-141.8" font-family="Times,serif" font-size="14.00"> </text>
<text text-anchor="middle" x="614" y="-126.8" font-family="Times,serif" font-size="14.00"> Rules:</text>
<text text-anchor="middle" x="614" y="-111.8" font-family="Times,serif" font-size="14.00">g(y) &#45;&gt; y</text>
</g>
<!-- Order:
 
 Rules:
f(g(x),g(y)) &#45;&gt; y
g(y) &#45;&gt; y&#45;&gt;Order:
 
 Rules:
g(y) &#45;&gt; y -->
<g id="edge11" class="edge">
<title>Order:
 
 Rules:
f(g(x),g(y)) &#45;&gt; y
g(y) &#45;&gt; y&#45;&gt;Order:
 
 Rules:
g(y) &#45;&gt; y</title>
<path fill="none" stroke="black" d="M614,-222.73C614,-209.86 614,-195.6 614,-182.54"/>
<polygon fill="black" stroke="black" points="617.5,-182.38 614,-172.38 610.5,-182.38 617.5,-182.38"/>
<text text-anchor="middle" x="688" y="-193.8" font-family="Times,serif" font-size="14.00">KB1 drop f(g(x),g(y)) &#45;&gt; y</text>
</g>
<!-- Order:
 
 Rules:
 -->
<g id="node13" class="node">
<title>Order:
 
 Rules:
</title>
<polygon fill="lightgreen" stroke="lightgreen" points="641.5,-53 586.5,-53 586.5,0 641.5,0 641.5,-53"/>
<text text-anchor="middle" x="614" y="-37.8" font-family="Times,serif" font-size="14.00">Order:</text>
<text text-anchor="middle" x="614" y="-22.8" font-family="Times,serif" font-size="14.00"> </text>
<text text-anchor="middle" x="614" y="-7.8" font-family="Times,serif" font-size="14.00"> Rules:</text>
</g>
<!-- Order:
 
 Rules:
g(y) &#45;&gt; y&#45;&gt;Order:
 
 Rules:
 -->
<g id="edge12" class="edge">
<title>Order:
 
 Rules:
g(y) &#45;&gt; y&#45;&gt;Order:
 
 Rules:
</title>
<path fill="none" stroke="black" d="M614,-103.85C614,-91.03 614,-76.34 614,-63.29"/>
<polygon fill="black" stroke="black" points="617.5,-63.24 614,-53.24 610.5,-63.24 617.5,-63.24"/>
<text text-anchor="middle" x="668" y="-74.8" font-family="Times,serif" font-size="14.00">KB1 drop g(y) &#45;&gt; y</text>
</g>
</g>
</svg>
